<svg width="80" height="80" viewBox="0 0 80 80" xmlns="http://www.w3.org/2000/svg"><defs><circle id="ancg23ohva" cx="40" cy="40" r="40"/></defs><g fill="none" fill-rule="evenodd"><mask id="byee0xikqb" fill="#fff"><use href="#ancg23ohva"/></mask><use fill="#F4F4F4" fill-rule="nonzero" href="#ancg23ohva"/><path fill="#999" fill-rule="nonzero" d="M40.216 10.265c8.955 0 16.145 7.15 16.145 16.054 0 8.905-7.19 16.053-16.145 16.053-8.956 0-16.145-7.148-16.145-16.053 0-8.905 7.273-16.054 16.145-16.054z" mask="url(#byee0xikqb)"/><path fill="#999" fill-rule="nonzero" d="M25.356 82.342c-5.339 0-9.78-3.384-9.78-7.395V56.814c0-6.351 4.07-12.326 10.433-15.752 0 0 5.797 5.39 14.253 5.557 8.415-.209 13.888-5.557 13.888-5.557 6.406 3.426 10.629 9.4 10.629 15.752v25.528H25.356z" mask="url(#byee0xikqb)"/></g></svg>